<?xml version="1.0" encoding="UTF-8"?>
<svg width="512" height="640" viewBox="0 0 512 640" xmlns="http://www.w3.org/2000/svg">
  <!-- Book cover with Dofus-inspired design -->
  <defs>
    <linearGradient id="leatherTexture" x1="0%" y1="0%" x2="100%" y2="100%">
      <stop offset="0%" stop-color="#5c3c20" />
      <stop offset="50%" stop-color="#8b5a2b" />
      <stop offset="100%" stop-color="#4a2e1a" />
    </linearGradient>
    <filter id="emboss">
      <feGaussianBlur in="SourceAlpha" stdDeviation="3" result="blur" />
      <feSpecularLighting in="blur" surfaceScale="3" specularConstant="1" specularExponent="20" lighting-color="#ffffff" result="specOut">
        <fePointLight x="250" y="300" z="100" />
      </feSpecularLighting>
      <feComposite in="specOut" in2="SourceAlpha" operator="in" result="specOut" />
      <feComposite in="SourceGraphic" in2="specOut" operator="arithmetic" k1="0" k2="1" k3="1" k4="0" />
    </filter>
    <filter id="shadow" x="-20%" y="-20%" width="140%" height="140%">
      <feDropShadow dx="0" dy="0" stdDeviation="15" flood-color="#000" flood-opacity="0.5" />
    </filter>
  </defs>
  
  <!-- Main book cover -->
  <rect x="10" y="10" width="492" height="620" rx="15" fill="url(#leatherTexture)" filter="url(#shadow)" />
  
  <!-- Gold trim border -->
  <rect x="25" y="25" width="462" height="590" rx="10" fill="none" stroke="#d4af37" stroke-width="3" />
  
  <!-- Dofus emblem in the center -->
  <circle cx="256" cy="320" r="100" fill="#d4af37" opacity="0.9" filter="url(#emboss)" />
  <ellipse cx="256" cy="320" rx="85" ry="95" fill="#2c1a0e" />
  <ellipse cx="256" cy="320" rx="75" ry="85" fill="#d4af37" opacity="0.8" />
  
  <!-- Decorative corner elements -->
  <path d="M35 35 L85 35 L85 45 L45 45 L45 85 L35 85 Z" fill="#d4af37" />
  <path d="M477 35 L427 35 L427 45 L467 45 L467 85 L477 85 Z" fill="#d4af37" />
  <path d="M35 605 L85 605 L85 595 L45 595 L45 555 L35 555 Z" fill="#d4af37" />
  <path d="M477 605 L427 605 L427 595 L467 595 L467 555 L477 555 Z" fill="#d4af37" />
  
  <!-- Magical runes around the emblem -->
  <g opacity="0.7">
    <circle cx="256" cy="180" r="10" fill="#d4af37" />
    <circle cx="256" cy="460" r="10" fill="#d4af37" />
    <circle cx="136" cy="320" r="10" fill="#d4af37" />
    <circle cx="376" cy="320" r="10" fill="#d4af37" />
  </g>
</svg>
